<svg xmlns="http://www.w3.org/2000/svg" version="1.1" xmlns:xlink="http://www.w3.org/1999/xlink" xmlns:svgjs="http://svgjs.dev/svgjs" width="1920" height="1080" preserveAspectRatio="none" viewBox="0 0 1920 1080"><g mask="url(&quot;#SvgjsMask1001&quot;)" fill="none"><rect width="1920" height="1080" x="0" y="0" fill="rgba(245, 245, 245, 1)"></rect><path d="M698.72 389.34L752.86 389.34L752.86 488.69L698.72 488.69z" stroke="rgba(251, 88, 15, 1)"></path><path d="M934.64 679.69L974.69 679.69L974.69 719.74L934.64 719.74z" fill="rgba(110, 63, 189, 1)"></path><path d="M800.87 691.12L813.42 691.12L813.42 787L800.87 787z" stroke="rgba(1, 169, 190, 1)"></path><path d="M750.86 26.28L786.66 26.28L786.66 57.91L750.86 57.91z" fill="rgba(254, 177, 2, 1)"></path><path d="M1064 101.08 a68.41 68.41 0 1 0 136.82 0 a68.41 68.41 0 1 0 -136.82 0z" fill="rgba(251, 88, 15, 1)"></path><path d="M1447.97 883.44a84.81 84.81 0 1 0 153.56 72.04z" fill="rgba(251, 88, 15, 1)"></path><path d="M-21.95 368.05 a73.5 73.5 0 1 0 147 0 a73.5 73.5 0 1 0 -147 0z" stroke="rgba(1, 169, 190, 1)"></path><path d="M362.27 247.06L454.42 247.06L454.42 339.21L362.27 339.21z" stroke="rgba(251, 88, 15, 1)"></path><path d="M1381.45 262.26 a37.28 37.28 0 1 0 74.56 0 a37.28 37.28 0 1 0 -74.56 0z" fill="rgba(254, 177, 2, 1)"></path><path d="M1640.19 468.87 a102.58 102.58 0 1 0 205.16 0 a102.58 102.58 0 1 0 -205.16 0z" fill="rgba(110, 63, 189, 1)"></path><path d="M1684.25 876.25a55.18 55.18 0 1 0 2.58 110.33z" fill="rgba(1, 169, 190, 1)"></path><path d="M459.13 180.65 a28.99 28.99 0 1 0 57.98 0 a28.99 28.99 0 1 0 -57.98 0z" stroke="rgba(254, 177, 2, 1)"></path><path d="M856.41 550.42L887.99 550.42L887.99 575.07L856.41 575.07z" stroke="rgba(254, 177, 2, 1)"></path><path d="M1749.89 525.39L1831.78 525.39L1831.78 607.28L1749.89 607.28z" stroke="rgba(254, 177, 2, 1)"></path><path d="M1789.48 631.48L1881.7 631.48L1881.7 723.7L1789.48 723.7z" fill="rgba(251, 88, 15, 1)"></path><path d="M1084.57 344.9L1149.26 344.9L1149.26 448.11L1084.57 448.11z" stroke="rgba(1, 169, 190, 1)"></path><path d="M158.46 89.08L233.9 89.08L233.9 164.52L158.46 164.52z" stroke="rgba(1, 169, 190, 1)"></path><path d="M826.86 641.23 a59.04 59.04 0 1 0 118.08 0 a59.04 59.04 0 1 0 -118.08 0z" stroke="rgba(110, 63, 189, 1)"></path><path d="M1061.14 476.49 a68.27 68.27 0 1 0 136.54 0 a68.27 68.27 0 1 0 -136.54 0z" stroke="rgba(110, 63, 189, 1)"></path><path d="M255.86 932.01a104.85 104.85 0 1 0-169.25-123.81z" stroke="rgba(251, 88, 15, 1)"></path><path d="M740.4 428.25L790.21 428.25L790.21 478.06L740.4 478.06z" stroke="rgba(254, 177, 2, 1)"></path><path d="M1540.16 329.34L1580.73 329.34L1580.73 403.81L1540.16 403.81z" fill="rgba(1, 169, 190, 1)"></path><path d="M765.48 810.82a59.73 59.73 0 1 0-60.76-102.85z" fill="rgba(251, 88, 15, 1)"></path></g><defs><mask id="SvgjsMask1001"><rect width="1920" height="1080" fill="#ffffff"></rect></mask></defs></svg>